<svg width="22" height="16" viewBox="0 0 22 16" fill="none" xmlns="http://www.w3.org/2000/svg">
<path d="M19.936 6.94519H1.32907C0.595048 6.94519 0 7.38941 0 7.93737C0 8.48533 0.595048 8.92954 1.32907 8.92954H19.936C20.67 8.92954 21.2651 8.48533 21.2651 7.93737C21.2651 7.38941 20.67 6.94519 19.936 6.94519Z" fill="#0094FF"/>
<path d="M1.32907 4.29942H19.936C20.67 4.29942 21.2651 3.8552 21.2651 3.30724C21.2651 2.75928 20.67 2.31506 19.936 2.31506H1.32907C0.595048 2.31506 0 2.75928 0 3.30724C0 3.8552 0.595048 4.29942 1.32907 4.29942Z" fill="#0094FF"/>
<path d="M19.936 11.5753H1.32907C0.595048 11.5753 0 12.0195 0 12.5675C0 13.1155 0.595048 13.5597 1.32907 13.5597H19.936C20.67 13.5597 21.2651 13.1155 21.2651 12.5675C21.2651 12.0195 20.67 11.5753 19.936 11.5753Z" fill="#0094FF"/>
</svg>
